<?xml version="1.0" standalone="no"?>
<!DOCTYPE svg PUBLIC "-//W3C//DTD SVG 20010904//EN"
 "http://www.w3.org/TR/2001/REC-SVG-20010904/DTD/svg10.dtd">
<svg version="1.0" xmlns="http://www.w3.org/2000/svg"
 width="640.000000pt" height="1280.000000pt" viewBox="0 0 640.000000 1280.000000"
 preserveAspectRatio="xMidYMid meet">
<g transform="translate(0.000000,1280.000000) scale(0.100000,-0.100000)"
fill="#000000" stroke="none">
<path d="M1292 12775 c-20 -25 -41 -107 -91 -355 -16 -80 -57 -264 -90 -410
-89 -390 -92 -413 -98 -695 -9 -386 11 -632 107 -1320 84 -599 143 -943 241
-1395 103 -475 161 -789 199 -1072 63 -471 117 -953 135 -1183 9 -115 20 -255
25 -310 25 -256 30 -358 40 -750 13 -535 22 -690 65 -1120 19 -192 42 -494 50
-670 8 -176 24 -493 35 -705 24 -468 40 -1165 40 -1750 1 -500 10 -712 35
-764 53 -110 210 -180 464 -206 318 -32 581 16 648 119 66 99 68 146 68 1411
l-1 1125 -41 440 c-58 612 -62 667 -73 1135 -5 228 -12 449 -15 490 -29 385
-23 994 15 1610 30 490 39 918 50 2380 6 834 13 1353 20 1384 23 112 66 153
130 126 20 -8 38 -26 46 -45 20 -48 59 -287 104 -630 75 -574 130 -895 230
-1360 101 -465 124 -614 180 -1170 21 -206 34 -398 40 -610 13 -427 12 -1518
-1 -1908 -7 -229 -7 -393 0 -567 6 -135 16 -540 21 -900 6 -360 15 -837 20
-1060 7 -274 6 -622 -1 -1075 -13 -769 -14 -751 60 -824 59 -60 117 -86 255
-117 94 -22 127 -25 216 -20 421 22 500 37 583 114 70 66 87 109 98 255 4 67
15 154 23 192 26 123 38 759 41 2305 2 873 7 1563 14 1690 6 118 15 328 21
465 6 138 19 419 30 625 11 206 24 517 30 691 12 389 22 528 65 979 49 506 57
720 59 1470 1 567 -2 688 -16 820 -16 146 -83 812 -129 1275 -25 261 -67 597
-80 650 -6 22 -15 74 -20 115 -5 41 -27 190 -49 330 -22 140 -54 361 -70 490
-16 129 -34 250 -41 268 -15 43 -55 64 -100 52 -48 -13 -218 -35 -490 -65
-310 -34 -354 -40 -554 -80 -207 -42 -293 -52 -500 -60 -259 -11 -833 16 -965
45 -25 6 -125 17 -223 25 -97 8 -225 22 -285 30 -137 20 -443 82 -496 100 -53
19 -51 19 -74 -10z m2038 -331 c41 -35 60 -74 60 -124 0 -90 -66 -163 -145
-163 -56 0 -87 21 -114 76 -27 56 -27 103 2 157 41 79 136 105 197 54z m-240
-439 c7 -9 10 -18 7 -21 -10 -11 -37 5 -37 21 0 19 14 19 30 0z"/>
<path d="M3234 12326 c-6 -17 12 -56 26 -56 14 0 31 37 24 54 -8 20 -43 21
-50 2z"/>
</g>
</svg>
